# xmcd
#
# Track frame offsets:
#	182
#	15265
#	29350
#	45482
#	61055
#	74927
#	92987
#	109235
#	128322
#	145132
#	160682
#	180610
#	199910
#	217402
#	232747
#	248925
#	265315
#	282137
#	308357
#
# Disc length: 4383 seconds
#
# Revision: 0
# Processed by: cddbd v1.5.1PL2 Copyright (c) Steve Scherf et al.
# Submitted via: audiograbber 1.83.01
#
DISCID=09111d13
DTITLE=Compilation - It Takes Two ( Disc 1 )
DYEAR=1900
DGENRE=
TTITLE0=Kim Weston and Frankie Gaye - It Takes Two
TTITLE1=Matha Reeves and G C Cameron - You´re All I Need To Get By
TTITLE2=Jonny Bristol - What Does It Take To Win Your Love
TTITLE3=Marv Johnson and Carol Gill - Ain´t Nothing Like The Real Thing
TTITLE4=The Contours - This Old Heart Of Mine
TTITLE5=Kim Weston - It Should Have Been Me
TTITLE6=Saundra Edwards - Put Yourself In My Place
TTITLE7=Frances Nero - Take Me In Your Arms And Love Me
TTITLE8=Ronnie McNeir - Wholeheartedly
TTITLE9=Syreeta - Reflections
TTITLE10=Bill Eckstine and Susaye Green - It´s Impossible
TTITLE11=Carolyn Crawford - Cry To Me
TTITLE12=Scherrie Payne - I´m Still Waiting
TTITLE13=Jonny Bristol and Liz Lands - Someday We´ll Be Together
TTITLE14=Brenda Holloway - Every Little Bit Hurts
TTITLE15=Sammy Ward - Try It Baby
TTITLE16=Jean Terrell - Too Many Memories
TTITLE17=Billy Preston and Syreeta - Watching The Hands Of Time
TTITLE18=Sherri Taylor and Sammy Ward - Reunited
EXTD=
EXTT0=
EXTT1=
EXTT2=
EXTT3=
EXTT4=
EXTT5=
EXTT6=
EXTT7=
EXTT8=
EXTT9=
EXTT10=
EXTT11=
EXTT12=
EXTT13=
EXTT14=
EXTT15=
EXTT16=
EXTT17=
EXTT18=
PLAYORDER=
